<?xml version="1.0" encoding="utf-8"?>
<!-- Generator: Adobe Illustrator 19.0.0, SVG Export Plug-In . SVG Version: 6.00 Build 0)  -->
<svg version="1.1" id="Layer_1" xmlns="http://www.w3.org/2000/svg" xmlns:xlink="http://www.w3.org/1999/xlink" x="0px" y="0px"
	 viewBox="-263.8 252.2 512.1 387.8" style="enable-background:new -263.8 252.2 512.1 387.8;" xml:space="preserve">
<style type="text/css">
	.st0{fill:#D1593D;}
	.st1{fill:#E86C54;}
	.st2{fill:#231C1C;}
</style>
<rect x="-241" y="272.9" class="st0" width="466" height="349"/>
<polygon class="st1" points="-8,454.9 -8,609.9 212,609.9 212,296.9 "/>
<polygon class="st1" points="-8,289.9 -8,454.9 206,282.9 -10,279.9 "/>
<path id="XMLID_453_" class="st2" d="M248,274.8c0-0.5,0-0.9-0.1-1.3c0-0.3,0-0.6-0.1-1c0-0.4-0.1-0.9-0.2-1.3
	c-0.1-0.3-0.1-0.7-0.2-1c-0.1-0.4-0.2-0.8-0.3-1.2c-0.1-0.4-0.2-0.7-0.3-1.1c-0.1-0.4-0.3-0.7-0.4-1c-0.1-0.4-0.3-0.7-0.4-1.1
	c-0.1-0.3-0.3-0.6-0.4-0.9c-0.2-0.4-0.4-0.8-0.6-1.1c-0.2-0.3-0.3-0.6-0.5-0.8c-0.2-0.4-0.5-0.8-0.7-1.1c-0.1-0.1-0.1-0.2-0.2-0.3
	c-0.1-0.2-0.3-0.3-0.4-0.5c-0.3-0.3-0.5-0.7-0.8-1c-0.2-0.3-0.5-0.6-0.8-0.8c-0.2-0.3-0.5-0.5-0.8-0.8c-0.3-0.3-0.6-0.6-0.9-0.8
	c-0.2-0.2-0.5-0.4-0.8-0.6c-0.3-0.3-0.7-0.5-1-0.8c-0.3-0.2-0.5-0.4-0.8-0.5c-0.3-0.2-0.7-0.4-1-0.6c-0.3-0.2-0.6-0.3-1-0.5
	c-0.3-0.2-0.7-0.3-1-0.5c-0.4-0.2-0.7-0.3-1.1-0.5c-0.3-0.1-0.6-0.2-0.9-0.3c-0.4-0.1-0.8-0.3-1.2-0.4c-0.3-0.1-0.6-0.2-1-0.2
	c-0.4-0.1-0.8-0.2-1.2-0.2c-0.4-0.1-0.7-0.1-1.1-0.2c-0.4,0-0.7-0.1-1.1-0.1s-0.8-0.1-1.3-0.1c-0.2,0-0.4,0-0.6,0h-465.5
	c-0.2,0-0.4,0-0.6,0c-0.4,0-0.8,0-1.2,0.1c-0.4,0-0.8,0.1-1.1,0.1c-0.4,0-0.7,0.1-1.1,0.2c-0.4,0.1-0.8,0.2-1.2,0.3
	c-0.3,0.1-0.6,0.2-0.9,0.2c-0.4,0.1-0.8,0.2-1.2,0.4c-0.3,0.1-0.6,0.2-0.9,0.3c-0.4,0.1-0.8,0.3-1.1,0.5c-0.3,0.1-0.7,0.3-1,0.5
	c-0.3,0.2-0.7,0.3-1,0.5c-0.3,0.2-0.7,0.4-1,0.6s-0.6,0.4-0.8,0.6c-0.3,0.2-0.7,0.5-1,0.8c-0.3,0.2-0.5,0.4-0.8,0.6
	c-0.3,0.3-0.6,0.5-0.9,0.8s-0.5,0.5-0.8,0.8c-0.3,0.3-0.5,0.5-0.8,0.8c-0.3,0.3-0.5,0.6-0.8,1c-0.1,0.2-0.3,0.3-0.4,0.5
	c-0.1,0.1-0.1,0.2-0.2,0.3c-0.3,0.4-0.5,0.7-0.7,1.1c-0.2,0.3-0.4,0.6-0.5,0.8c-0.2,0.4-0.4,0.8-0.6,1.1c-0.2,0.3-0.3,0.6-0.5,0.9
	c-0.2,0.4-0.3,0.7-0.4,1.1c-0.1,0.3-0.3,0.7-0.4,1c-0.1,0.3-0.2,0.7-0.3,1.1c-0.1,0.4-0.2,0.8-0.3,1.2c-0.1,0.3-0.1,0.7-0.2,1
	c-0.1,0.4-0.1,0.9-0.2,1.3c0,0.3-0.1,0.6-0.1,1c0,0.4-0.1,0.9-0.1,1.3c0,0.1,0,0.3,0,0.4v341.3c0,12.9,10.4,23.3,23.3,23.3H225
	c12.9,0,23.3-10.4,23.3-23.3V275.2C248,275.1,248,275,248,274.8z M153.6,298.5L-8,417l-161.6-118.5H153.6z M-217.5,593.3V321.2
	l195.7,143.5c4.1,3,8.9,4.5,13.8,4.5c4.8,0,9.7-1.5,13.8-4.5l195.7-143.5v272.1H-217.5z"/>
</svg>
