<?xml version="1.0" encoding="utf-8"?>
<!-- Generator: Adobe Illustrator 19.0.0, SVG Export Plug-In . SVG Version: 6.00 Build 0)  -->
<svg version="1.1" id="Layer_1" xmlns="http://www.w3.org/2000/svg" xmlns:xlink="http://www.w3.org/1999/xlink" x="0px" y="0px"
	 width="512px" height="512px" viewBox="-223 25 512 512" style="enable-background:new -223 25 512 512;" xml:space="preserve">
<style type="text/css">
	.st0{fill:#D65751;}
	.st1{fill:#F76D6D;}
	.st2{fill:#231C1C;}
</style>
<rect x="-200" y="108" class="st0" width="466" height="349"/>
<polygon class="st1" points="33,290 33,445 253,445 253,132 "/>
<polygon class="st1" points="33,125 33,290 247,118 31,115 "/>
<path id="XMLID_453_" class="st2" d="M289,109.9c0-0.5,0-0.9-0.1-1.3c0-0.3,0-0.6-0.1-1c0-0.4-0.1-0.9-0.2-1.3
	c-0.1-0.3-0.1-0.7-0.2-1c-0.1-0.4-0.2-0.8-0.3-1.2c-0.1-0.4-0.2-0.7-0.3-1.1c-0.1-0.4-0.3-0.7-0.4-1c-0.1-0.4-0.3-0.7-0.4-1.1
	c-0.1-0.3-0.3-0.6-0.4-0.9c-0.2-0.4-0.4-0.8-0.6-1.1c-0.2-0.3-0.3-0.6-0.5-0.8c-0.2-0.4-0.5-0.8-0.7-1.1c-0.1-0.1-0.1-0.2-0.2-0.3
	c-0.1-0.2-0.3-0.3-0.4-0.5c-0.3-0.3-0.5-0.7-0.8-1c-0.2-0.3-0.5-0.6-0.8-0.8c-0.2-0.3-0.5-0.5-0.8-0.8c-0.3-0.3-0.6-0.6-0.9-0.8
	c-0.2-0.2-0.5-0.4-0.8-0.6c-0.3-0.3-0.7-0.5-1-0.8c-0.3-0.2-0.5-0.4-0.8-0.5c-0.3-0.2-0.7-0.4-1-0.6c-0.3-0.2-0.6-0.3-1-0.5
	c-0.3-0.2-0.7-0.3-1-0.5c-0.4-0.2-0.7-0.3-1.1-0.5c-0.3-0.1-0.6-0.2-0.9-0.3c-0.4-0.1-0.8-0.3-1.2-0.4c-0.3-0.1-0.6-0.2-1-0.2
	c-0.4-0.1-0.8-0.2-1.2-0.2c-0.4-0.1-0.7-0.1-1.1-0.2c-0.4,0-0.7-0.1-1.1-0.1c-0.4,0-0.8-0.1-1.3-0.1c-0.2,0-0.4,0-0.6,0h-465.5
	c-0.2,0-0.4,0-0.6,0c-0.4,0-0.8,0-1.2,0.1c-0.4,0-0.8,0.1-1.1,0.1c-0.4,0-0.7,0.1-1.1,0.2c-0.4,0.1-0.8,0.2-1.2,0.3
	c-0.3,0.1-0.6,0.2-0.9,0.2c-0.4,0.1-0.8,0.2-1.2,0.4c-0.3,0.1-0.6,0.2-0.9,0.3c-0.4,0.1-0.8,0.3-1.1,0.5c-0.3,0.1-0.7,0.3-1,0.5
	c-0.3,0.2-0.7,0.3-1,0.5c-0.3,0.2-0.7,0.4-1,0.6c-0.3,0.2-0.6,0.4-0.8,0.6c-0.3,0.2-0.7,0.5-1,0.8c-0.3,0.2-0.5,0.4-0.8,0.6
	c-0.3,0.3-0.6,0.5-0.9,0.8c-0.3,0.3-0.5,0.5-0.8,0.8c-0.3,0.3-0.5,0.5-0.8,0.8c-0.3,0.3-0.5,0.6-0.8,1c-0.1,0.2-0.3,0.3-0.4,0.5
	c-0.1,0.1-0.1,0.2-0.2,0.3c-0.3,0.4-0.5,0.7-0.7,1.1c-0.2,0.3-0.4,0.6-0.5,0.8c-0.2,0.4-0.4,0.8-0.6,1.1c-0.2,0.3-0.3,0.6-0.5,0.9
	c-0.2,0.4-0.3,0.7-0.4,1.1c-0.1,0.3-0.3,0.7-0.4,1c-0.1,0.3-0.2,0.7-0.3,1.1c-0.1,0.4-0.2,0.8-0.3,1.2c-0.1,0.3-0.1,0.7-0.2,1
	c-0.1,0.4-0.1,0.9-0.2,1.3c0,0.3-0.1,0.6-0.1,1c0,0.4-0.1,0.9-0.1,1.3c0,0.1,0,0.3,0,0.4v341.3c0,12.9,10.4,23.3,23.3,23.3h465.5
	c12.9,0,23.3-10.4,23.3-23.3V110.3C289,110.2,289,110.1,289,109.9z M194.6,133.6L33,252.1l-161.6-118.5H194.6z M-176.5,428.4V156.3
	L19.2,299.8c4.1,3,8.9,4.5,13.8,4.5c4.8,0,9.7-1.5,13.8-4.5l195.7-143.5v272.1H-176.5z"/>
</svg>
