<?xml version="1.0" encoding="utf-8"?>
<!-- Generator: Adobe Illustrator 19.0.0, SVG Export Plug-In . SVG Version: 6.00 Build 0)  -->
<svg version="1.1" id="Capa_1" xmlns="http://www.w3.org/2000/svg" xmlns:xlink="http://www.w3.org/1999/xlink" x="0px" y="0px"
	 viewBox="112 0 400 400" style="enable-background:new 112 0 400 400;" xml:space="preserve">
<style type="text/css">
	.st0{fill:#FFFFFF;}
</style>
<g>
	<g id="archive">
		<path class="st0" d="M416.8,116.1l-17.3-21c-2.5-3.7-7.4-6.2-13.6-6.2H238c-6.2,0-11.1,2.5-14.8,6.2l-16,21
			c-3.7,4.9-6.2,9.9-6.2,16v154.2c0,13.6,11.1,24.7,24.7,24.7h172.7c13.6,0,24.7-11.1,24.7-24.7V132.2
			C423,126,420.5,121.1,416.8,116.1z M312,267.8L244.2,200h43.2v-24.7h49.3V200h43.2L312,267.8z M226.9,113.7l9.9-12.3h148
			l11.1,12.3H226.9z"/>
	</g>
</g>
</svg>
