<?xml version="1.0" encoding="utf-8"?>
<!-- Generator: Adobe Illustrator 19.0.0, SVG Export Plug-In . SVG Version: 6.00 Build 0)  -->
<svg version="1.1" id="Layer_1" xmlns="http://www.w3.org/2000/svg" xmlns:xlink="http://www.w3.org/1999/xlink" x="0px" y="0px"
	 viewBox="0 0 400 400" style="enable-background:new 0 0 400 400;" xml:space="preserve">
<style type="text/css">
	.st0{fill:#FFFFFF;}
</style>
<path id="White_2_" class="st0" d="M298.747,87.552H101.253C94.485,87.552,89,93.037,89,99.805V297.3
	c0,6.766,5.485,12.253,12.253,12.253h106.324v-85.97h-28.931v-33.504h28.931V165.37c0-28.674,17.513-44.287,43.092-44.287
	c12.253,0,22.783,0.912,25.852,1.32v29.966l-17.74,0.008c-13.911,0-16.605,6.61-16.605,16.311v21.391h33.177l-4.32,33.504h-28.858
	v85.97h56.571c6.766,0,12.253-5.486,12.253-12.253V99.805C311,93.037,305.514,87.552,298.747,87.552z"/>
</svg>
