<?xml version="1.0" encoding="utf-8"?>
<!-- Generator: Adobe Illustrator 19.0.0, SVG Export Plug-In . SVG Version: 6.00 Build 0)  -->
<svg version="1.1" id="Layer_1" xmlns="http://www.w3.org/2000/svg" xmlns:xlink="http://www.w3.org/1999/xlink" x="0px" y="0px"
	 viewBox="0 0 400 400" style="enable-background:new 0 0 400 400;" xml:space="preserve">
<style type="text/css">
	.st0{fill:#FFFFFF;}
</style>
<path id="White_2_" class="st0" d="M300.035,87.552H99.965c-6.856,0-12.412,5.556-12.412,12.412v200.07
	c0,6.855,5.556,12.412,12.412,12.412h107.711v-87.091h-29.308v-33.941h29.308v-25.031c0-29.048,17.741-44.865,43.654-44.865
	c12.412,0,23.08,0.924,26.189,1.337v30.357l-17.972,0.008c-14.093,0-16.821,6.697-16.821,16.524v21.67h33.61l-4.376,33.941h-29.234
	v87.091h57.309c6.855,0,12.412-5.558,12.412-12.412V99.965C312.447,93.109,306.89,87.552,300.035,87.552z"/>
</svg>
