<?xml version="1.0" encoding="utf-8"?>
<!-- Generator: Adobe Illustrator 19.0.0, SVG Export Plug-In . SVG Version: 6.00 Build 0)  -->
<svg version="1.1" id="Capa_1" xmlns="http://www.w3.org/2000/svg" xmlns:xlink="http://www.w3.org/1999/xlink" x="0px" y="0px"
	 viewBox="-167 81 400 400" style="enable-background:new -167 81 400 400;" xml:space="preserve">
<style type="text/css">
	.st0{fill:#FFFFFF;}
</style>
<g>
	<path class="st0" d="M138.7,275.2L46,182.4c-3.5-3.5-7.8-5.3-13-5.3c-5.2,0-9.5,1.8-12.8,5.3l-92.8,92.8c-3.6,3.6-5.4,7.9-5.4,13
		c0,4.9,1.8,9.2,5.4,12.8l10.7,10.7c3.4,3.6,7.7,5.4,12.8,5.4c5.1,0,9.4-1.8,12.8-5.4l41.9-41.7v100.3c0,4.9,1.8,9,5.3,12
		c3.6,3.1,7.9,4.6,12.9,4.6h18.2c5,0,9.3-1.5,12.9-4.6c3.6-3.1,5.3-7.1,5.3-12V269.9l41.9,41.7c3.4,3.6,7.7,5.4,12.8,5.4
		c5,0,9.4-1.8,13-5.4l10.7-10.7c3.5-3.7,5.3-8,5.3-12.8C144,283.2,142.2,278.9,138.7,275.2z"/>
</g>
</svg>
