<?xml version="1.0" encoding="utf-8"?>
<!-- Generator: Adobe Illustrator 19.0.0, SVG Export Plug-In . SVG Version: 6.00 Build 0)  -->
<svg version="1.1" id="Layer_1" xmlns="http://www.w3.org/2000/svg" xmlns:xlink="http://www.w3.org/1999/xlink" x="0px" y="0px"
	 viewBox="0 0 400 400" style="enable-background:new 0 0 400 400;" xml:space="preserve">
<style type="text/css">
	.st0{fill:#FFFFFF;}
</style>
<path id="XMLID_453_" class="st0" d="M311.2,127.3c0-0.2,0-0.4,0-0.6c0-0.1,0-0.3,0-0.4c0-0.2,0-0.4-0.1-0.6c0-0.1,0-0.3-0.1-0.4
	c0-0.2-0.1-0.3-0.1-0.5c0-0.2-0.1-0.3-0.1-0.5c0-0.2-0.1-0.3-0.2-0.4c0-0.2-0.1-0.3-0.2-0.5c0-0.1-0.1-0.3-0.2-0.4
	c-0.1-0.2-0.2-0.3-0.3-0.5c-0.1-0.1-0.1-0.3-0.2-0.3c-0.1-0.2-0.2-0.3-0.3-0.5c0,0,0-0.1-0.1-0.1c0-0.1-0.1-0.1-0.2-0.2
	c-0.1-0.1-0.2-0.3-0.3-0.4c-0.1-0.1-0.2-0.3-0.3-0.3c-0.1-0.1-0.2-0.2-0.3-0.3s-0.3-0.3-0.4-0.3c-0.1-0.1-0.2-0.2-0.3-0.3
	c-0.1-0.1-0.3-0.2-0.4-0.3c-0.1-0.1-0.2-0.2-0.3-0.2c-0.1-0.1-0.3-0.2-0.4-0.3c-0.1-0.1-0.3-0.1-0.4-0.2c-0.1-0.1-0.3-0.1-0.4-0.2
	c-0.2-0.1-0.3-0.1-0.5-0.2c-0.1,0-0.3-0.1-0.4-0.1c-0.2,0-0.3-0.1-0.5-0.2c-0.1,0-0.3-0.1-0.4-0.1c-0.2,0-0.3-0.1-0.5-0.1
	c-0.2,0-0.3,0-0.5-0.1c-0.2,0-0.3,0-0.5,0s-0.3,0-0.6,0c-0.1,0-0.2,0-0.3,0H99.3c-0.1,0-0.2,0-0.3,0c-0.2,0-0.3,0-0.5,0
	c-0.2,0-0.3,0-0.5,0c-0.2,0-0.3,0-0.5,0.1c-0.2,0-0.3,0.1-0.5,0.1c-0.1,0-0.3,0.1-0.4,0.1c-0.2,0-0.3,0.1-0.5,0.2
	c-0.1,0-0.3,0.1-0.4,0.1c-0.2,0-0.3,0.1-0.5,0.2c-0.1,0-0.3,0.1-0.4,0.2c-0.1,0.1-0.3,0.1-0.4,0.2s-0.3,0.2-0.4,0.3
	c-0.1,0.1-0.3,0.2-0.3,0.3c-0.1,0.1-0.3,0.2-0.4,0.3c-0.1,0.1-0.2,0.2-0.3,0.3c-0.1,0.1-0.3,0.2-0.4,0.3c-0.1,0.1-0.2,0.2-0.3,0.3
	c-0.1,0.1-0.2,0.2-0.3,0.3c-0.1,0.1-0.2,0.3-0.3,0.4c0,0.1-0.1,0.1-0.2,0.2c0,0,0,0.1-0.1,0.1c-0.1,0.2-0.2,0.3-0.3,0.5
	c-0.1,0.1-0.2,0.3-0.2,0.3c-0.1,0.2-0.2,0.3-0.3,0.5c-0.1,0.1-0.1,0.3-0.2,0.4c-0.1,0.2-0.1,0.3-0.2,0.5c0,0.1-0.1,0.3-0.2,0.4
	c0,0.1-0.1,0.3-0.1,0.5c0,0.2-0.1,0.3-0.1,0.5c0,0.1,0,0.3-0.1,0.4c0,0.2,0,0.4-0.1,0.6c0,0.1,0,0.3,0,0.4c0,0.2,0,0.4,0,0.6
	c0,0,0,0.1,0,0.2v148c0,5.6,4.5,10.1,10.1,10.1h201.8c5.6,0,10.1-4.5,10.1-10.1v-148C311.2,127.4,311.2,127.4,311.2,127.3z
	 M270.3,137.6l-70.1,51.4l-70.1-51.4H270.3z M109.4,265.4v-118l84.8,62.2c1.8,1.3,3.9,2,6,2c2.1,0,4.2-0.7,6-2l84.8-62.2v118
	L109.4,265.4L109.4,265.4z"/>
</svg>
