<?xml version="1.0" encoding="utf-8"?>
<!-- Generator: Adobe Illustrator 19.0.0, SVG Export Plug-In . SVG Version: 6.00 Build 0)  -->
<svg version="1.1" id="Layer_1" xmlns="http://www.w3.org/2000/svg" xmlns:xlink="http://www.w3.org/1999/xlink" x="0px" y="0px"
	 viewBox="0 0 400 400" style="enable-background:new 0 0 400 400;" xml:space="preserve">
<style type="text/css">
	.st0{fill:#FFFFFF;}
</style>
<path id="White_2_" class="st0" d="M298.7,87.6H101.3C94.5,87.6,89,93,89,99.8v197.5c0,6.8,5.5,12.3,12.3,12.3h106.3v-86h-28.9
	v-33.5h28.9v-24.7c0-28.7,17.5-44.3,43.1-44.3c12.3,0,22.8,0.9,25.9,1.3v30l-17.7,0c-13.9,0-16.6,6.6-16.6,16.3v21.4h33.2l-4.3,33.5
	h-28.9v86h56.6c6.8,0,12.3-5.5,12.3-12.3V99.8C311,93,305.5,87.6,298.7,87.6z"/>
</svg>
