<?xml version="1.0" encoding="utf-8"?>
<!-- Generator: Adobe Illustrator 19.0.0, SVG Export Plug-In . SVG Version: 6.00 Build 0)  -->
<svg version="1.1" id="Layer_1" xmlns="http://www.w3.org/2000/svg" xmlns:xlink="http://www.w3.org/1999/xlink" x="0px" y="0px"
	 viewBox="0 0 400 400" style="enable-background:new 0 0 400 400;" xml:space="preserve">
<style type="text/css">
	.st0{fill-rule:evenodd;clip-rule:evenodd;fill:#FFFFFF;}
</style>
<path id="XMLID_27_" class="st0" d="M200.993,95.178C139.15,95.178,89,145.214,89,206.944c0,49.373,32.088,91.261,76.598,106.042
	c5.6,1.025,7.644-2.425,7.644-5.387c0-2.653-0.097-9.681-0.151-19.008c-31.155,6.754-37.728-14.981-37.728-14.981
	c-5.093-12.911-12.435-16.348-12.435-16.348c-10.169-6.934,0.769-6.794,0.769-6.794c11.24,0.79,17.155,11.517,17.155,11.517
	c9.991,17.079,26.213,12.147,32.595,9.286c1.018-7.222,3.911-12.147,7.111-14.941c-24.87-2.82-51.016-12.408-51.016-55.235
	c0-12.201,4.364-22.177,11.528-29.989c-1.152-2.827-4.995-14.19,1.098-29.577c0,0,9.404-3.005,30.799,11.457
	c8.933-2.479,18.515-3.719,28.039-3.762c9.511,0.043,19.093,1.283,28.039,3.762c21.382-14.462,30.769-11.457,30.769-11.457
	c6.11,15.387,2.266,26.75,1.115,29.577c7.178,7.812,11.512,17.789,11.512,29.989c0,42.934-26.186,52.381-51.137,55.148
	c4.022,3.45,7.604,10.271,7.604,20.696c0,14.941-0.138,26.995-0.138,30.659c0,2.989,2.017,6.466,7.701,5.374
	C280.938,298.165,313,256.303,313,206.944C313,145.214,262.85,95.178,200.993,95.178z"/>
</svg>
