<svg id="Layer_1" xmlns="http://www.w3.org/2000/svg" width="250" height="59" viewBox="-354.2 255 250 59"><style>.st0{fill:#FFFFFF;}</style><g id="web__design"><path class="st0" d="M-218.3 308.4c.4 0 .7-.2 1.1-.5.4-.4.6-.7 1-1.2-.1-.7-.2-1.2-.4-1.7-.1-.4-.1-.9-.1-1.1 0-.2-.1-.7-.1-1.1s-.1-1-.1-1.7c-.1-.5 0-.9.1-1.2.1-.4.4-.6.6-.9.2-.2.6-.5 1-.6s.8-.2 1.2-.4c.4-.1.7-.1.8 0 .2 0 .4.1.5.2s.1.2.2.4v.2c0 .2 0 .5-.1.7 0 .2-.1.6-.1 1.1s.1 1 .1 1.5.1 1.1.1 1.7.1 1.1.1 1.6.1 1 .2 1.3c.1.4.2.7.4 1 .1.2.2.4.5.4s.5-.1.7-.2c.2-.1.5-.4.7-.7.2-.2.4-.6.6-1 .1-.4.4-.7.5-1.1-.4-.1-.6-.2-.8-.4-.2-.1-.4-.4-.5-.6-.1-.2-.2-.5-.2-.9s-.1-.6-.1-1v-.9c0-.2.1-.5.1-.7.1-.5.4-.9.6-1.1.2-.2.5-.6.7-.7s.5-.4.7-.4c.2-.1.5-.1.6-.1.4 0 .6.1.7.4.1.2.2.6.4 1 .1.4.1.9.1 1.3v1.2c.2.1.4.1.6.1h.5c.1 0 .4-.1.5-.2.1-.1.4-.1.5-.2.4-.2.7-.5 1-.6.2-.2.5-.4.6-.5.1-.1.2-.2.4-.2.1 0 .2-.1.4 0 .1 0 .1.1.2.2 0 .1.1.2 0 .4 0 .1 0 .2-.1.4 0 .1-.1.2-.2.4l-.4.4c-.1.1-.2.2-.2.4l-.2.2c-.2.2-.6.6-1.1.9-.4.4-1 .6-1.7 1-.2.1-.4.1-.6.2-.2 0-.4.1-.6.1-.2.6-.6 1.3-1 2.1s-.8 1.5-1.3 2.1-1.1 1.1-1.7 1.6c-.6.5-1.2.6-1.9.7-.4 0-.6 0-.8-.2-.2-.2-.5-.4-.7-.6s-.4-.6-.6-.9c-.2-.2-.4-.6-.5-1-.4.4-.6.7-1 1.1s-.7.7-1.1 1c-.4.2-.7.5-1.2.6-.4.1-.8.2-1.2.2-.5 0-1-.1-1.2-.5-.4-.4-.6-.7-.8-1.3s-.4-1.1-.6-1.6c-.1-.6-.2-1-.4-1.3-.1-.2-.1-.6-.2-1s-.1-.7-.2-1.2-.1-.9-.2-1.2c0-.5-.1-.9-.1-1.2 0-.2-.1-.5-.1-.7 0-.2-.1-.5-.1-.7 0-.4 0-.7.2-1 .1-.2.4-.6.6-.7.2-.2.5-.4.8-.5.4-.1.6-.2.8-.4.5-.1.8-.1 1.1-.1s.5.1.6.2c.1.1.2.2.2.4v.4c0 .2 0 .5-.1.7 0 .2-.1.6-.1 1.1v1.3c.1.7.1 1.5.2 2.2s.1 1.5.2 2.1c.1.6.2 1.1.4 1.6.1-.2.3-.1.6-.1z"/><path class="st0" d="M-200.6 304.4c0 .7.1 1.5.4 1.9.2.5.5 1 .8 1.2.4.2.6.5 1 .6s.7.1 1 .1c.4 0 .7-.1 1.1-.2.4-.1.7-.4 1-.6.2-.2.6-.5.8-.7.2-.2.5-.6.6-.9.2-.4.4-.6.5-1 .1-.2.2-.5.4-.6.1-.1.1-.4.2-.4.1-.1.1-.1.2-.1s.2 0 .2.1.1.2.1.4v.5s0 .2-.1.4c0 .2-.1.5-.2.7-.1.5-.4 1-.7 1.5-.4.6-.7 1.1-1.2 1.6s-1.1 1-1.7 1.3c-.7.4-1.4.6-2.3.6-.6 0-1.3-.1-2-.4-.7-.2-1.3-.6-1.9-1.1-.6-.5-1.1-1.1-1.4-1.8-.4-.7-.6-1.5-.6-2.3 0-.7 0-1.6.2-2.3.2-.7.5-1.5.8-2.2.4-.7.8-1.2 1.4-1.7s1.2-.9 1.9-1.1c.4-.1.8-.2 1.3-.2.6 0 1.2 0 1.8.2.6.2 1.1.5 1.4.9.4.4.7.9 1 1.3s.4 1.2.4 1.9c0 .4 0 .7-.1 1.1s-.2.7-.4 1l-.7.7c-.4.2-.7.2-1.2.4-.5 0-.8 0-1.3-.1s-.8-.1-1.2-.2-.6-.2-.8-.4c-.2-.1-.4-.2-.4-.4v-.2c0-.1.1-.1.1-.2s.1-.1.1-.2c.1 0 .1-.1.2-.1h1.8c.4 0 .6 0 .7-.1.2-.1.2-.4.2-.7 0-.2 0-.5-.1-.9 0-.4-.1-.7-.2-1.1-.1-.4-.2-.7-.5-1-.2-.2-.5-.4-.8-.4s-.7.1-1 .5-.5.7-.7 1.2c-.2.5-.2 1-.4 1.6.3.8.3 1.3.3 1.9z"/><path class="st0" d="M-181.3 303.6c0 .7-.1 1.6-.5 2.3-.2.7-.6 1.5-1.2 2.1-.5.6-1.1 1.1-1.8 1.6s-1.4.6-2.3.7c-.4 0-.7 0-1.1-.1s-.6-.2-.8-.5c-.1.2-.2.4-.4.5-.1.1-.4.2-.5.2-.1 0-.4.1-.6.1h-1.1c-.1 0-.2-.1-.4-.2-.2-.2-.2-.5-.4-.9l-.4-5.5c-.1-1.8-.2-3.5-.2-5.4-.1-1.8-.1-3.5-.2-5.4-.1-1.8-.1-3.6-.2-5.5v-1.5c0-.5.1-.9.4-1.1.2-.4.5-.6.8-.7.4-.2.8-.4 1.6-.5.4-.1.6 0 .8.1.2.1.4.2.6.6.1.2.2.6.2 1 0 1.1.1 2.1 0 2.9v2.7c0 .9 0 1.7-.1 2.6v13.6c0 .2.1.5.2.7.1.2.2.4.4.6.1.2.4.2.6.2s.4 0 .6-.2c.2-.1.5-.4.6-.7.1-.4.4-.6.5-1.1.1-.4.2-.9.2-1.3s.1-1 0-1.5l4.7-.4zm-6-4.9c.1-.2.4-.5.6-.6l.7-.4c.2-.1.5-.1.8-.1.2 0 .5.1.8.2.7.4 1.2.9 1.7 1.5s.8 1.2 1.2 2.1c.2 0 .4 0 .6-.1l.7-.4c.2-.1.5-.4.7-.5s.4-.4.6-.4c.2-.2.5-.4.6-.5.1-.1.2-.1.5-.1.1 0 .1.1.2.2 0 .1.1.2 0 .4 0 .2-.1.6-.2.9-.1.2-.4.5-.6.7-.4.4-.8.9-1.3 1.2-.5.4-1.1.7-1.7 1v.1l-4.3.9v-.9l-.1-.1-.1-.1c-.2-.1-.4-.4-.6-.5-.2-.2-.5-.4-.7-.6l-.6-.6c-.1-.2-.2-.4-.2-.6 0-.6.1-1 .2-1.3.1-.8.4-1.2.5-1.4zm18.6-14.7c0-.6.1-1 .4-1.3.2-.4.6-.5 1.2-.4.6.1 1.2.2 1.6.4s.7.4.8.7c.1.4.4.6.4 1.1.1.4.1 1 .1 1.5v2.2c0 1.8.1 3.5.1 5.2.1 1.7.1 3.4.1 5 0 1.1 0 2.1.1 3 0 .9.1 1.7.1 2.6 0 .7.1 1.3.4 1.7.2.4.5.6.7.5.2 0 .5-.1.7-.2.2-.2.5-.4.7-.7.2-.2.5-.6.6-.9.2-.4.4-.6.5-.9l.4-.7c.4-.2.5-.2.5-.2.1 0 .1 0 .2.1s.1.2.1.4v.7c-.1.2-.1.6-.4 1-.1.4-.4.7-.6 1.2-.2.4-.5.9-.8 1.2-.4.4-.6.7-1.1 1.1-.5.4-.8.6-1.2.9-.5.2-1 .4-1.4.4-.5 0-.8-.1-1.1-.2-.4-.2-.6-.5-.7-.7-.4.4-.6.7-1.1 1-.4.2-.8.4-1.4.4-.5 0-1 0-1.3-.1-.5-.1-1-.2-1.4-.5-.5-.2-1-.6-1.3-1-.4-.4-.7-1-1-1.6-.2-.6-.4-1.3-.5-2.2 0-.9.1-1.7.4-2.7.2-.9.6-1.7 1.1-2.3.5-.7 1.1-1.2 1.8-1.7s1.6-.7 2.4-.7h1c-.1-1.2-.2-2.7-.4-4.4-.1-1.7-.4-3.5-.5-5.8 0-.4 0-.9-.1-1.2 0-1.1-.1-1.4-.1-1.9zm1.7 22.4c-.1-.6-.2-1.2-.2-1.8-.1-.6-.1-1.2-.1-1.8s-.1-1.2-.1-1.9 0-1.3-.1-1.9c-.1-.2-.2-.5-.4-.6s-.4-.2-.5-.2c-.4 0-.7.1-1 .5-.2.4-.5.7-.7 1.2-.1.5-.2 1-.4 1.6s-.1 1.2-.1 1.7c0 .9.1 1.5.4 2.1.2.5.4 1 .7 1.3.2.4.5.5.8.6.2.1.6.1.8.1.1 0 .4-.1.5-.2.1-.4.2-.4.4-.7z"/><path class="st0" d="M-156.7 302.6c0 .7.1 1.5.4 1.9s.5 1 .8 1.2c.4.2.6.5 1 .6s.7.1 1 .1c.4 0 .7-.1 1.1-.2.4-.1.7-.4 1-.6.2-.2.6-.5.8-.7.2-.2.5-.6.6-.9.2-.4.4-.6.5-1 .1-.2.2-.5.4-.6.1-.1.1-.4.2-.4.1-.1.1-.1.2-.1s.2 0 .2.1.1.2.1.4v.5c0 .1 0 .2-.1.4 0 .2-.1.5-.2.7-.1.5-.4 1-.7 1.5-.4.6-.7 1.1-1.2 1.6s-1.1 1-1.7 1.3c-.7.4-1.4.6-2.3.6-.6 0-1.3-.1-2-.4-.7-.2-1.3-.6-1.9-1.1-.6-.5-1.1-1.1-1.4-1.8s-.6-1.5-.6-2.3c0-.7 0-1.6.2-2.3.2-.7.5-1.5.8-2.2.4-.6.8-1.2 1.4-1.7s1.2-.9 1.9-1.1c.4-.1.8-.2 1.3-.2.6 0 1.2 0 1.8.2.6.1 1.1.5 1.4.9.4.4.7.9 1 1.3.2.6.4 1.2.4 1.9 0 .4 0 .7-.1 1.1-.1.4-.2.7-.4 1l-.7.7s-.7.2-1.2.4c-.5 0-.8 0-1.3-.1s-.8-.1-1.2-.2-.6-.2-.8-.4c-.2-.1-.4-.2-.4-.4v-.2c0-.1.1-.1.1-.2s.1-.1.1-.2c.1 0 .1-.1.2-.1h1.8c.4 0 .6 0 .7-.1.2-.1.2-.4.2-.7 0-.2 0-.5-.1-.9 0-.4-.1-.7-.2-1.1-.1-.4-.2-.7-.5-1-.2-.2-.5-.4-.8-.4s-.7.1-1 .5c-.2.4-.5.7-.7 1.2-.1.5-.2 1-.4 1.6-.1.5.3 1.3.3 1.9z"/><path class="st0" d="M-148.5 296.9v-.5c0-.1 0-.2.1-.5.1-.1.2-.2.5-.4.2-.1.6-.2 1.1-.4.5-.1.8-.2 1.2-.2s.6 0 .7.1c.2.1.4.2.5.5.1.2.2.5.4.9.1.1.1.4.1.5 0 .1.1.4.1.6.1.2.1.5.4.9.2.4.4.7.6 1.2.2.4.4.7.6 1.1.2.4.4.7.6 1.1.1.4.4.7.5 1 .1.4.2.6.2 1s0 .7-.1 1.1c-.1.4-.2.6-.4 1 .5-.4.8-.7 1.1-1.2.4-.4.6-.7.7-1.1.2-.4.4-.6.5-1 .1-.2.2-.5.2-.6.1-.2.2-.2.4-.2.1 0 .2 0 .2.1s.1.4.1.6v.7c0 .2-.1.6-.2.9-.1.2-.2.6-.4.9-.2.5-.6 1-1.1 1.3-.5.5-1 .9-1.7 1.2-.6.4-1.4.7-2.3 1-.8.2-1.8.4-2.9.5-1.1 0-1.9-.1-2.5-.6-.6-.5-1-1.2-1.1-2.1V305c0-.2.1-.4.1-.6.1-.1.2-.2.4-.2h.7c.4 0 .6 0 1 .1s.6.1.8.2c.2.1.4.2.4.5v.6c0 .2-.1.4-.1.6 0 .1-.1.4-.1.5v.4c0 .1 0 .2.1.2.1.1.1.1.4.1.5 0 .8-.1 1.1-.5.2-.2.5-.7.4-1.2 0-.4-.1-.7-.2-1.3-.1-.6-.5-1.2-.7-1.9-.2-.4-.4-.9-.6-1.2s-.4-.7-.5-1c0 .1 0 .4-.1.6 0 .2-.1.6-.2 1s-.2.9-.4 1.5-.4 1.2-.6 1.9c-.1.2-.1.4-.2.5-.1.1-.2.1-.4.1-.1 0-.2 0-.4-.1l-.4-.4c-.1-.1-.1-.4-.1-.6 0-.2 0-.5.1-.7.2-.6.5-1.3.7-1.8.1-.6.2-1.1.4-1.6.1-.5.1-1 .2-1.3.1-.4 0-.7 0-1.1v-.4c0-.1 0-.4-.1-.6l.2-.4z"/><path class="st0" d="M-139.2 296.3c.1-.1.2-.2.4-.5.1-.2.5-.2.7-.4.2-.1.6-.2.8-.2.4-.1.6-.1.8-.1.1 0 .4 0 .4.1.1.1.2.1.2.4 0 .2.1.2.1.5v5.6c0 .6 0 1.2.1 1.7 0 .5.1 1 .2 1.2.1.4.2.5.5.5.2 0 .5-.1.7-.2.2-.2.5-.4.7-.7.2-.2.5-.6.6-.9.1-.2.4-.6.5-.9l.4-.7c.1-.1.1-.2.2-.2s.2 0 .2.1.1.2.1.4v.9c0 .2-.1.6-.2 1s-.4.7-.6 1.2c-.2.4-.5.9-.8 1.2-.4.4-.6.7-1.1 1.1-.4.4-.8.6-1.2.9-.5.2-1 .4-1.4.4-.4 0-.7-.1-1-.4-.2-.2-.5-.6-.7-1-.2-.4-.4-.9-.5-1.3-.1-.5-.2-1-.2-1.3 0-.2 0-.4-.1-.6s0-.4 0-.5v-.6c0-.2 0-.6-.1-1.1 0-.5 0-1-.1-1.5s0-1.1 0-1.6v-1.5c0 .1.2-.8.4-1zm.1-5.3c0-.4 0-.7.1-1.2s.2-.7.5-1.1c.2-.4.5-.6.7-.7.2-.2.5-.4.8-.4s.6 0 .8.2c.2.1.4.4.5.5.1.2.2.5.2.7 0 .2.1.5.1.7 0 .5 0 1-.1 1.3-.1.4-.4.7-.5 1-.1.2-.5.5-.7.6-.2.1-.5.2-.7.2-.4 0-.6 0-.8-.1-.2-.1-.4-.2-.6-.5l-.4-.7.1-.5z"/><path class="st0" d="M-125.6 295.2l.2-.2.2-.2c.1-.1.2-.1.5-.2.1-.1.4-.1.5-.2.1 0 .4-.1.5-.1.1 0 .4-.1.4-.1h.7s.4.1.4.2c.1.1.1.2.2.4v.5c0 .6 0 1.2.1 1.9 0 .7.1 1.5.1 2.3v2.6c0 .9 0 1.7-.1 2.7.4 0 .7-.1 1.1-.4.4-.2.6-.5.8-.7.2-.2.5-.6.7-1 .2-.4.4-.6.5-.9l.4-.7s.1-.2.2-.2.2 0 .2.1.1.2.1.4v.9c0 .4-.2.7-.5 1.2-.2.5-.6 1-1 1.6-.4.5-.8 1-1.3 1.5s-1 .9-1.6 1.1c-.1.9-.4 1.7-.6 2.6-.2.7-.6 1.5-1 2.1s-.8 1.1-1.4 1.5c-.6.4-1.2.6-2 .6h-1.2s-.8-.1-1.3-.4c-.4-.2-.7-.5-1.1-.9-.4-.4-.5-.9-.5-1.6 0-.2 0-.5.1-.7l.4-.7c.1-.2.4-.4.5-.6.2-.1.4-.2.6-.2.2 0 .5.1.6.2s.2.4.4.6c.1.2.1.6.2.9 0 .4.1.6.2.9.1.2.2.5.4.6.1.1.4.2.6.2.5 0 .7-.1 1-.5.2-.2.5-.6.6-1.1s.2-1.1.2-1.7V307c-.2.2-.5.4-.8.5-.4.1-.6.2-1 .2s-.7 0-1.1-.1c-.5-.1-1-.2-1.6-.5-.5-.2-1-.6-1.4-1-.5-.4-.7-1-1.1-1.6s-.5-1.5-.5-2.3c0-.5 0-1 .1-1.5.1-.7.4-1.5.6-2.2.4-.7.7-1.3 1.2-1.8s1.1-1 1.7-1.3c.6-.4 1.3-.5 2.2-.6h.8l.9.4zm-.8 10.3c.1 0 .2 0 .5-.1.1-.1.2-.2.4-.5l-.2-5c0-.4-.1-.9-.1-1.2s-.1-.9-.1-1.1c-.1-.4-.2-.6-.4-.9-.1-.2-.4-.4-.6-.4-.4 0-.6.1-.8.4-.2.2-.5.5-.6.9s-.4.7-.4 1.2c-.1.5-.2.9-.2 1.3v1.3c0 .9.1 1.5.4 2.1.2.5.4 1 .7 1.2.2.4.5.5.8.6s.4.2.6.2z"/><path class="st0" d="M-119.2 296c0-.5.1-.9.2-1.1.1-.2.4-.6.5-.7s.4-.4.6-.5c.2-.1.5-.2.7-.2.4-.1.7-.1 1 0 .2.1.4.2.5.4.1.1.2.4.2.5 0 .2 0 .4.1.5v2.4c.1-.4.4-.7.6-1.1.2-.4.5-.7.7-1 .2-.2.6-.5 1-.7.4-.2.7-.2 1.1-.2.5 0 .8 0 1.2.1s.6.4.8.6c.2.2.5.5.6.9l.4 1.1c.1.4.1.9.2 1.2 0 .5 0 .9.1 1.3v3.2c0 .2 0 .4.1.6 0 .2.1.4.2.5.1.1.2.2.4.2s.5-.1.7-.2c.2-.1.5-.4.6-.6.2-.2.4-.5.6-.7.1-.2.4-.5.5-.7s.2-.5.4-.6c.1-.1.1-.4.2-.4.1-.1.2-.2.4-.2.1 0 .1 0 .2.1 0 .1.1.2.1.4s0 .2-.1.6c-.1.4-.2.7-.4 1.2s-.4 1-.7 1.5c-.2.5-.6 1-1 1.5s-.8.9-1.3 1.1c-.5.4-1.1.5-1.7.5-.5 0-1-.1-1.3-.4-.4-.2-.6-.6-.8-1-.2-.4-.4-.9-.5-1.3-.1-.5-.1-1.1-.2-1.6v-3.5c0-.4-.1-.7-.2-1-.1-.2-.2-.5-.5-.4-.4 0-.7.2-1 .6-.2.4-.5.9-.6 1.5-.1.6-.2 1.3-.4 2.2-.1.9-.1 1.8-.1 2.8v1.3c0 .4-.1.6-.4.9-.1.1-.2.2-.5.4-.2.1-.5.1-.8.2h-.7s-.4 0-.5-.1l-.4-.4c-.1-.1-.2-.4-.2-.6-.1-.5-.2-1-.4-1.6-.1-.6-.1-1.2-.1-1.8v-6.2c-.1-1.2-.1-1.4-.1-1.5z"/></g><g id="Tom_McCarten"><path class="st0" d="M-333.9 299.2h-.7c-.2 0-.5-.1-.7-.1-.2-.1-.4-.2-.5-.4-.1-.1-.2-.4-.2-.5 0-.5.1-.7.5-.9.5-.1 1-.4 1.3-.7.4-.4.7-.7 1-1.2.2-.5.5-1 .6-1.6.1-.6.1-1.2.1-1.8 0-.9-.1-1.7-.1-2.7-.1-.9-.1-1.7-.2-2.7-.2-1.2-.4-2.4-.5-3.6s-.2-2.4-.2-3.8v-3.8c0-1.2.2-2.4.5-3.6.2-1.1.6-2.2 1.1-3.2.5-1 1.1-1.8 1.9-2.6-1.2-.4-2.4-.7-3.8-1.1-1.3-.4-2.8-.7-4.2-1-1-.2-1.9-.4-3-.5-1-.1-2-.1-3-.1-.8 0-1.8.2-2.6.5-1 .4-1.7.7-2.4 1.3-.7.6-1.3 1.2-1.8 2.1-.5.9-.6 1.8-.6 2.8 0 .9.2 1.6.5 2.3.2.7.7 1.5 1.2 1.9.5.6 1.1 1 1.7 1.3.6.4 1.3.5 2.2.5s1.4-.2 1.8-.5c.5-.4.7-.7 1-1.1.2-.4.4-.7.5-1.1.1-.4.4-.6.6-.6.2 0 .6.1.8.2s.5.4.7.7c.2.2.4.6.5.9.1.4.2.6.2.9 0 .5-.1 1.1-.5 1.5-.4.4-.8.9-1.3 1.2-.6.4-1.2.6-1.8.9-.7.2-1.3.4-2 .4-1.1 0-2.2-.1-3.2-.6s-1.9-1.1-2.6-1.9c-.7-.9-1.4-1.7-1.9-2.8-.5-1.1-.7-2.2-.8-3.4 0-1.8.2-3.5.8-5 .6-1.5 1.4-2.7 2.5-3.6 1.1-1 2-1.6 3.4-2.2 1.2-.6 2.5-1 3.7-1.2.4 0 .8-.1 1.3-.1s1-.1 1.4-.1c1 0 1.9 0 2.8.1.8 0 1.8.1 2.8.4 1.4.2 2.8.6 4.2 1 1.4.4 2.8.9 4.2 1.3l4.2 1.5c1.4.5 2.8 1 4.2 1.3 1.4.4 2.9.7 4.3 1 1.4.2 2.9.4 4.3.2.7 0 1.4-.1 2-.2.6-.1 1.2-.2 1.7-.6.1 0 .2-.1.5-.2.1-.1.4-.2.6-.4.2-.1.4-.2.6-.2h.4c.2 0 .5.1.7.2.2.2.4.5.4 1 0 .7-.2 1.3-.7 1.8-.5.5-1.1 1-1.9 1.2-.7.4-1.7.6-2.5.7-1 .1-1.8.2-2.8.2h-2.9c-1-.1-1.9-.1-2.9-.2s-2-.2-3-.5-2.2-.4-3.2-.5c-.4 0-.7-.1-1.2-.2s-.8-.1-1.2-.1c-.7 0-1.2.4-1.4 1-.2.6-.4 1.5-.2 2.7 0 .6.1 1.5.1 2.2 0 .7.2 1.7.4 2.6.2 1.3.4 2.9.6 4.4.2 1.6.4 3.2.4 4.7v2.9c0 .7-.1 1.6-.2 2.4-.1.9-.4 1.7-.6 2.6-.2.9-.6 1.6-1 2.4-.4.7-.8 1.5-1.4 2.1s-1.2 1.1-1.9 1.5c-1.8.1-2.6.4-3.6.4z"/><path class="st0" d="M-310.4 281.9c.5.4.8.7 1.3 1.2.2.2.4.5.5.7l.4.7c.2 0 .5 0 .8-.1.4-.1.7-.2 1-.5.4-.1.7-.4 1-.6.4-.2.6-.4.7-.5.4-.2.6-.5.7-.6.1-.1.4-.2.6-.1.1 0 .2.1.2.2s.1.2.1.5c0 .4-.1.7-.4 1.1-.2.4-.5.6-.8 1-.5.5-1.1 1.1-1.8 1.6s-1.4 1-2.3 1.2c0 1-.2 2.1-.6 3-.4 1-.7 1.9-1.3 2.8-.6.9-1.3 1.6-2.3 2.1s-1.9.9-3.1.9c-1 0-1.9-.1-2.8-.5-.8-.4-1.7-.9-2.4-1.5s-1.3-1.5-1.7-2.3c-.5-1-.7-1.9-.7-3.2s.1-2.3.5-3.5.8-2.2 1.6-3.2c.7-1 1.4-1.7 2.4-2.3s2-.9 3.2-1h1.3c.5 0 1 .1 1.4.2.5.1 1 .5 1.3.9.9.6 1.1 1.1 1.2 1.8zm-4.6 11.3c.4 0 .7-.2 1-.6.2-.4.5-.9.6-1.3s.2-1.1.4-1.7c0-.6.1-1.2 0-1.7v-.1c-.6-.2-1.1-.6-1.6-1.2s-.7-1.3-.7-2.4c0-.5.1-.9.5-1.2.4-.4.7-.6 1.1-.9-.1-.2-.2-.5-.4-.6s-.4-.2-.6-.2-.5.1-.7.2c-.4.2-.7.5-1 1-.2.5-.5 1-.7 1.6-.1.6-.4 1.2-.4 1.9-.1.7-.1 1.3-.1 2.1 0 1 .1 1.8.4 2.6.2.7.5 1.2.7 1.7.2.4.6.7.8.9s.4-.1.7-.1z"/><path class="st0" d="M-305.6 282.5c0-1.5.1-2.6.6-3.4.5-.9 1.2-1.2 2.3-1.6.5-.1 1-.1 1.2 0 .2.1.6.2.7.5l.4.7c0 .2.1.5.1.6v2.9c.2-.5.5-1 .8-1.5.4-.5.7-.9 1.1-1.2s.8-.7 1.2-.9c.4-.1.8-.4 1.3-.4 1.1 0 1.8.2 2.4.6.6.4 1 1.1 1.3 1.8.1.2.1.5.2.9.1.2.1.6.1.9.2-.5.5-1.1.8-1.6.4-.5.7-1 1.1-1.3.4-.4.8-.7 1.3-1 .5-.2 1-.4 1.4-.4.7 0 1.2.1 1.7.4.5.2.8.6 1.2 1 .4.4.6.9.7 1.5.1.6.4 1.1.5 1.8.1.6.1 1.3.2 1.9v5.4c0 .2.1.5.2.9s.4.4.6.5c.4 0 .6-.1 1-.4.4-.2.6-.5.8-.7.2-.4.5-.6.7-1 .2-.4.5-.7.6-1 .1-.2.4-.6.5-.9.1-.2.2-.4.2-.5.1-.2.4-.4.5-.4s.2.1.2.2.1.4.1.5 0 .4-.1.7c-.1.4-.4 1-.6 1.6s-.6 1.2-1 1.9-.8 1.3-1.3 1.9c-.5.6-1.2 1.1-1.8 1.5-.7.4-1.4.6-2.3.6-.7 0-1.3-.1-1.7-.5-.5-.4-.8-.7-1.1-1.3-.2-.6-.5-1.2-.6-1.8s-.2-1.5-.2-2.2v-4.9c0-.5-.1-1-.2-1.3s-.4-.6-.6-.6c-.2 0-.5.1-.8.4-.2.2-.6.6-.8 1.1-.2.6-.5 1.3-.6 2.3-.1 1-.2 2.3-.2 3.8v3c0 .7-.1 1.3-.5 1.7-.2.2-.5.4-.7.5-.2.1-.7.2-1.4.2h-1s-.5-.1-.6-.2-.2-.4-.4-.6c-.1-.2-.1-.5-.1-.9 0-.1 0-.5-.1-.9s0-1 0-1.9c0-.9 0-1.8-.1-2.8 0-1.1-.1-2.2-.4-3.5-.1-.6-.2-1.1-.4-1.5-.1-.4-.4-.6-.6-.6-.5 0-1 .2-1.3.7-.4.5-.6 1.2-.8 2.1-.2.9-.4 1.8-.5 2.9s-.1 2.3-.1 3.5v1.8c0 .5-.2 1-.5 1.2-.1.1-.4.4-.7.5-.4.1-.7.2-1.2.2h-.6c-.2 0-.4 0-.6-.1-.1-.1-.4-.2-.5-.5-.1-.2-.2-.5-.4-1 0-.1-.1-.5-.2-1.1s-.2-1.3-.2-2.4c0-.7-.1-1.6-.1-2.3v-5.4c-.1 0-.1-.2-.1-.6zm45.4-23.1c.2 1.2.6 2.4 1 3.8.4 1.3.7 2.6 1.2 3.9.4 1.3.7 2.7 1.2 4 .4 1.3.7 2.7 1 3.9.2-.9.5-1.8.7-2.9.2-1.1.6-2.2 1-3.4.4-1.1.7-2.3 1-3.4.4-1.1.7-2.2 1.1-3s.6-1.6 1-2.2c.2-.6.6-1 .8-1 .7 0 1.3.2 1.9.7s.8 1.1 1.1 1.9c0 1 0 1.8-.1 2.8 0 .9-.1 1.8-.1 2.7-.1.9-.1 1.8-.1 2.7v2.7c0 1.7.1 3.3.4 4.9.2 1.5.4 2.9.7 4.4.2 1.3.6 2.7 1.1 4 .4 1.2.8 2.6 1.4 3.8.4.9.7 1.6 1.1 2.2s.7 1.1 1 1.6c.1.2.2.5.2.7v.5l-.4 1.8c-.1.6-.4 1.2-.6 1.8s-.6 1-1 1.5c-.7.4-1.2.5-1.9.5-.5 0-1-.2-1.4-.7s-1-1.2-1.4-2.2c-.5-1-1-1.9-1.3-3.2-.4-1.2-.8-2.6-1.2-3.9-.4-1.3-.6-2.8-.8-4.1-.2-1.5-.4-2.8-.5-4.1 0-.5-.1-1-.1-1.5s-.1-1-.1-1.5-.1-1-.1-1.5-.1-1.1-.1-1.6c-.2.7-.4 1.6-.5 2.6-.1 1-.2 1.9-.4 3l-.4 3.3c-.1 1.1-.2 2.3-.4 3.4-.1 1.1-.2 1.9-.4 2.7-.1.6-.1 1.2-.2 1.7s-.1.7-.2 1.1c-.1.2-.1.6-.2.9-.1.2-.1.5-.2.7-.1.2-.2.5-.4.6-.1.2-.2.4-.4.5-.1.1-.4.1-.6.2-.1 0-.4 0-.6-.1s-.4-.2-.6-.4c-.2-.1-.4-.5-.5-.7s-.4-.7-.5-1.2c-.1-.4-.1-.6-.2-.9 0-.2-.1-.6-.1-.9 0-.4 0-.7-.1-1.1 0-.4 0-.9-.1-1.5-.2-2.6-.5-5-.8-7.3s-.7-4.5-1.3-6.6c0 1.6 0 3-.1 4.5-.1 1.6-.4 3.3-.6 5s-.7 3.5-1.1 5.1c-.5 1.7-1 3.3-1.6 4.7-.6 1.5-1.2 2.8-1.9 4s-1.4 2.1-2.3 2.8c-.8.7-1.7 1.1-2.5 1.1-.4 0-.7 0-1-.2-.2-.1-.5-.4-.7-.6-.1-.2-.4-.5-.4-.9s-.1-.6-.1-1c0-.7.1-1.3.5-1.8.4-.4 1-.7 1.9-1 1-.4 1.9-1 2.6-1.8.7-.9 1.4-2.1 1.9-3.3.5-1.3 1-2.8 1.3-4.4.4-1.6.6-3.3.8-5 .2-1.7.2-3.5.4-5.2v-5c0-1-.1-1.8-.1-2.8-.1-.9-.1-1.8-.4-2.7-.1-.9-.2-1.8-.5-2.7-.1-.2-.2-.7-.4-1.2-.1-.5-.4-1.1-.5-1.6s-.4-1.1-.5-1.5c-.1-.4-.2-.9-.2-1 0-.4.1-.9.4-1.3.2-.5.6-1 1.1-1.5.5-.6 1-1 1.6-1.3.5-.2 1-.5 1.4-.5.4 0 .7.1 1 .5.2.2.5.7.7 1.1.2.5.4 1 .5 1.5 0 .6.1 1 .2 1.4zm30.4 21c0 .2 0 .6-.1 1s-.2.6-.5 1l-.7.7s-.6.2-.8.4c-.4 0-.6-.1-.7-.4s-.2-.5-.2-.9-.1-.7-.1-1.1c0-.4 0-.7-.1-1.1 0-.4-.1-.6-.4-.9-.1-.2-.4-.4-.7-.4-.5 0-1 .2-1.3.6-.4.4-.7 1-1 1.6-.2.6-.4 1.3-.5 2.2-.1.7-.1 1.6-.1 2.3 0 1.1.1 1.9.4 2.7.2.7.6 1.2 1 1.7s.7.7 1.2.9c.5.1.8.2 1.3.2.7 0 1.3-.2 1.9-.5.6-.2 1.1-.7 1.6-1.1.5-.5.8-1 1.2-1.5s.6-1 1-1.5c.2-.5.5-.9.6-1.1.1-.2.2-.5.4-.5.1 0 .2.1.4.2.1.1.1.4 0 .5-.1.4-.2.9-.4 1.3-.1.6-.4 1.1-.6 1.7-.2.6-.6 1.2-1.1 1.8-.4.6-1 1.2-1.6 1.7s-1.3 1-2.2 1.2c-.8.4-1.8.5-2.9.6-.8 0-1.7-.1-2.6-.5-.8-.4-1.7-.9-2.3-1.5-.7-.6-1.3-1.5-1.7-2.3-.5-1-.7-1.9-.7-3.2s.1-2.3.5-3.5.8-2.2 1.6-3.2c.7-1 1.4-1.7 2.4-2.3 1-.6 2-.9 3.2-1h1.4c.5 0 1 .2 1.4.5.5.2.8.6 1.2 1.1.3 1.1.4 1.7.6 2.6z"/><path class="st0" d="M-202.3 285.3c.2-.4.4-.6.5-.7.1-.2.2-.4.4-.5.1-.1.2-.1.4-.2h.4c.1 0 .2 0 .2.1s.1.2.1.5v.6c0 .2-.1.4-.1.5-.4 1.3-.8 2.7-1.7 3.6-.8 1-1.8 1.9-2.9 2.7-1.1.7-2.4 1.3-3.7 1.7-1.3.4-2.6.6-4 .6-1.6 0-2.9-.1-4.2-.5-1.3-.4-2.5-1-3.7-1.6-1.1-.7-2.2-1.6-3-2.6-.8-1-1.7-2.1-2.3-3.2-.6-1.1-1.1-2.3-1.4-3.5s-.6-2.4-.6-3.6c0-1.9.1-3.9.6-5.7.5-1.8 1.1-3.5 1.9-5.2.8-1.6 1.9-3 3.1-4.5 1.2-1.3 2.6-2.6 4.2-3.5 1.6-1 3.2-1.7 5-2.3s3.7-.9 5.8-1h1.7c.6 0 1.2.1 1.8.2.6.1 1.3.2 1.9.4.6.1 1.3.2 1.9.5.4.1.8.2 1.3.5.5.1 1 .4 1.4.7s.8.6 1.1 1c.4.4.5.9.6 1.3 0 .4 0 .7-.2 1.1-.1.4-.4.6-.5.9-.1.2-.5.5-.7.6-.2.1-.6.2-.8.2-.2 0-.5 0-.7-.1-.2-.1-.4-.2-.6-.4l-.5-.5c-.1-.1-.2-.4-.5-.5-1-.9-2-1.6-3.2-1.9-1.2-.5-2.4-.6-3.6-.6-1.6 0-3 .4-4.3.9s-2.4 1.2-3.4 2.1c-1 .9-1.8 1.8-2.5 3-.7 1.1-1.3 2.3-1.8 3.6-.5 1.3-.7 2.7-1 4s-.2 2.7-.2 4c0 1.7.2 3.3.7 4.9.5 1.6 1.1 2.8 1.8 4 .8 1.1 1.8 2.1 3 2.7s2.5 1 4.1.9c1.4 0 2.5-.2 3.5-.6 1-.4 1.7-.7 2.4-1.2.6-.5 1.2-1 1.6-1.6.1-.7.5-1.2.7-1.8z"/><path class="st0" d="M-188.7 277.6v7.3c0 .6.1 1.2.2 1.7s.2.9.4 1.1c.1.2.4.5.6.4.5 0 .8-.2 1.3-.7l1.2-1.5s.6-1.1.8-1.5c.2-.5.4-.7.5-.9.1-.2.4-.4.5-.4.1 0 .2 0 .2.1.1.1.1.2.1.4 0 0 0 .2-.1.7s-.2 1-.6 1.6c-.2.6-.6 1.3-1 2.1-.4.7-.8 1.5-1.4 2.1-.6.6-1.2 1.2-1.9 1.6-.7.5-1.6.6-2.4.7-.5 0-1-.1-1.3-.4-.4-.2-.7-.7-1-1.2-.4.5-.8 1-1.4 1.3-.6.4-1.2.5-2 .5h-1.2c-.7-.1-1.3-.2-2-.6-.7-.2-1.4-.7-2-1.3-.6-.6-1.1-1.3-1.4-2.2-.4-.9-.6-1.9-.6-3.3 0-1.1.1-2.1.4-3.2s.7-1.9 1.2-2.9c.5-.9 1.2-1.6 1.9-2.3.7-.7 1.7-1.1 2.6-1.3.2-.1.5-.1.7-.1h.8c.4 0 .8.1 1.3.2s1 .4 1.4.7c.2 0 .5-.1.7-.2.4-.1.6-.2 1-.4s.7-.1 1-.1.6.1.8.2c.1.1.2.2.2.4s.1.4.2.6c.1.4.3.6.3.8zm-6 12.1c.2 0 .5-.1.7-.2.2-.1.4-.5.6-.9 0-.2 0-.5-.1-.9 0-.4 0-.9-.1-1.3 0-.5 0-1-.1-1.6 0-.6 0-1.1-.1-1.7l-.1-3c0-.1 0-.4-.1-.7 0-.2-.1-.6-.2-.9-.1-.2-.2-.5-.5-.7-.2-.2-.5-.2-.7-.2-.5 0-1 .2-1.3.6-.4.4-.7 1-1 1.6-.2.6-.4 1.3-.5 2.2-.1.7-.1 1.6-.1 2.3 0 1.1.1 1.9.4 2.7.2.7.5 1.3.8 1.7.4.5.7.7 1.1.9.6.1.9.1 1.3.1z"/><path class="st0" d="M-173.5 283.9c-.5 0-1 0-1.4-.1s-.8-.4-1.2-.6-.6-.6-.8-1c-.2-.4-.4-.9-.4-1.3v-.6s.1-.4.1-.5.1-.2.2-.4c.1-.1.1-.2.2-.4 0-.1.1-.2.1-.4 0-.1.1-.4 0-.6 0-.4-.1-.9-.2-1.5-.4.1-.6.2-1 .6-.2.4-.5.7-.7 1.2-.2.5-.4 1.1-.5 1.6-.1.5-.2 1.2-.4 1.8-.1.6-.2 1.2-.2 1.8s-.1 1.1-.1 1.5v4.7c0 .6-.1 1.1-.4 1.3-.2.4-.5.6-.7.7-.4.1-.6.2-1 .2s-.7 0-1.1.1c-.5 0-.7-.1-1.1-.5-.2-.4-.4-.7-.4-1.1-.1-1-.1-1.8-.1-2.4 0-.7-.1-1.3-.1-1.8s-.1-1-.1-1.5 0-.9-.1-1.3c-.1-1.3-.1-2.7-.1-3.8s0-2.1.1-2.8c.1-.9.2-1.5.6-1.8.4-.5.7-.7 1.1-1 .4-.2.7-.4 1.1-.5.4-.1.6-.1.7-.1.2 0 .6 0 .8.2.2.1.5.4.6.7s.2.6.2 1.1v1.7c.2-.6.5-1.2.8-1.8s.7-1.1 1.1-1.6c.5-.5 1-.9 1.4-1.1.5-.2 1.1-.4 1.7-.5h.8c.4 0 .7.1 1.1.2l.7.4c.2.1.5.4.7.6.2.2.4.6.5 1 .1.4.2.9.2 1.3 0 .5-.1 1-.4 1.6-.2.6-.5 1.1-.7 1.7-.2.6-.7 1-1.1 1.5-.4.5-.8.7-1.3 1h.1l.1.1s.1 0 .2.1h.5c.7 0 1.3-.1 1.8-.5.5-.2 1-.6 1.3-1 .4-.4.7-.7 1-1.2.2-.4.6-.7.8-1.1.2-.2.5-.5.8-.6.2-.1.6-.2 1-.2s.5.4.6 1.1c0 .2 0 .5-.2.7-.1.2-.4.5-.5.9-.4.5-.7.9-1.3 1.3-.5.5-1.1.9-1.7 1.2-.6.4-1.3.7-1.9.9-.3.4-1.1.8-1.8.8z"/><path class="st0" d="M-169.3 260c.1-.9.5-1.5 1-1.8.5-.4 1.2-.7 2-.9.5-.1.8-.1 1.1-.1.2 0 .5 0 .7.1.1.1.4.2.4.4.1.1.2.2.2.4.1.4.2.7.2 1.2v3.8s0 2.3-.1 3.4c0 1.1-.1 2.1-.1 2.9 0 1-.1 1.7-.1 2.6l2-.1h1.2c.4 0 .6 0 .8-.1h.5c.1 0 .2 0 .4.1.1.1.1.1.1.2v1.3c0 .2-.1.5-.4.6-.2.1-.5.2-1 .4-.4.1-1 .1-1.7.1l-2.2.1v7.9c0 .7 0 1.5.1 2.2 0 1 .1 1.7.5 2.3.2.5.6.7 1.1.7.4 0 .7-.1 1.2-.5.4-.4.8-.7 1.2-1.2s.6-1 .8-1.3c.2-.4.4-.7.5-1 .1-.2.2-.5.4-.6.1-.1.2-.2.4-.2s.4.1.4.5c0 .2 0 .5-.1.7-.1.4-.2.7-.5 1.2s-.5 1.1-.7 1.6c-.4.6-.6 1.1-1.1 1.7-.4.6-.8 1.1-1.3 1.6s-1.1.9-1.7 1.1c-.6.2-1.2.5-1.9.5-.6 0-1.1-.1-1.4-.4-.4-.2-.7-.6-1-1.1-.2-.5-.5-1-.6-1.6l-.4-1.8c-.1-.6-.1-1.2-.2-1.9 0-.6-.1-1.2-.1-1.8-.1-1.5-.2-2.8-.2-4.3s-.1-2.8-.1-4.3h-2.3s-.4-.1-.4-.2-.1-.2-.1-.4v-.9c0-.2.1-.5.4-.6s.5-.4.8-.4c.4-.1.8-.1 1.4-.2v-10.7c-.2-.6-.2-.9-.1-1.2z"/><path class="st0" d="M-153.9 282.9c0 1.1.2 1.9.5 2.6s.6 1.2 1.1 1.7c.5.4.8.7 1.3.9s1 .2 1.3.2c.5 0 1.1-.1 1.6-.4.5-.2 1-.5 1.3-.7.4-.4.7-.6 1.1-1 .4-.4.6-.7.8-1.1.2-.5.5-.9.7-1.2.1-.4.4-.6.5-.9.1-.2.2-.4.4-.5s.2-.2.4-.2.2.1.4.2c0 .1.1.2.1.5v.6c0 .2-.1.4-.1.5-.1.2-.2.6-.4 1-.2.6-.6 1.2-1 1.9-.5.7-1 1.5-1.7 2.1-.7.6-1.4 1.2-2.3 1.7-.8.5-1.9.7-3.1.7-.8 0-1.8-.1-2.6-.5s-1.8-.9-2.5-1.5-1.4-1.5-1.9-2.4c-.5-1-.7-1.9-.8-3.2 0-1 .1-2.1.4-3 .2-1 .6-1.9 1.2-2.8.6-.9 1.2-1.6 1.9-2.3.7-.7 1.6-1.1 2.5-1.3.5-.1 1.1-.2 1.7-.2.8 0 1.7.1 2.4.4.7.2 1.3.6 1.9 1.1.5.5 1 1.1 1.3 1.8.4.7.5 1.6.5 2.6 0 .5 0 1-.1 1.5s-.2 1-.5 1.3c-.2.4-.6.7-1 1-.5.2-1 .4-1.6.4-.6 0-1.2 0-1.7-.1-.6-.1-1.1-.2-1.6-.4s-.8-.4-1.2-.5c-.2-.2-.5-.4-.5-.5v-.2c0-.1.1-.2.1-.4.1-.1.1-.2.2-.2s.1-.1.2-.1h1c.2 0 .5 0 .7.1h.7c.4 0 .7 0 1-.2.2-.1.4-.5.4-1 0-.2 0-.6-.1-1.1 0-.5-.1-1-.2-1.5s-.4-1-.6-1.3c-.2-.4-.6-.5-1.1-.5-.5 0-1 .2-1.3.6-.4.4-.7 1-1 1.6-.2.6-.4 1.3-.5 2.2-.2.4-.2 1.1-.2 2z"/><path class="st0" d="M-144.5 276.1c0-.6.1-1.1.4-1.5.2-.4.4-.7.7-1 .2-.2.6-.5.8-.6.4-.1.6-.2 1-.4.5-.1 1-.1 1.2 0 .2.1.5.2.7.5l.4.7c0 .2.1.5.1.6 0 .5 0 1.1-.1 1.6 0 .5 0 1-.1 1.6.2-.5.5-1 .8-1.5s.7-.9 1.1-1.2c.4-.4.8-.7 1.2-.9.5-.2.8-.4 1.3-.4.6 0 1.2.1 1.7.2s.8.5 1.2.7c.4.4.6.7.8 1.2.2.5.4 1 .5 1.5.1.5.2 1.1.2 1.7s.1 1.2.1 1.8v4.1c0 .2 0 .6.1.9 0 .2.1.5.2.6.1.2.2.2.5.2.4 0 .6-.1 1-.4.4-.2.6-.5.8-.7.2-.4.5-.6.7-1 .2-.4.5-.7.6-1 .2-.4.4-.6.5-.9.1-.2.2-.4.2-.5.1-.2.4-.4.5-.4.1 0 .2.1.2.2s.1.4.1.5c0 .1 0 .4-.1.7-.1.5-.4 1-.6 1.6-.2.6-.6 1.2-1 1.9s-.8 1.3-1.3 1.9c-.5.6-1.2 1.1-1.8 1.5-.6.4-1.4.6-2.3.6-.7 0-1.3-.1-1.7-.5-.5-.4-.8-.7-1.1-1.3-.2-.5-.5-1.2-.6-1.8-.1-.7-.2-1.5-.2-2.2v-4.9c0-.5-.1-1-.2-1.3-.1-.4-.4-.6-.6-.6-.5 0-.8.2-1.2.7s-.6 1.1-.8 1.9c-.2.9-.4 1.8-.5 2.9-.1 1.1-.1 2.3-.1 3.6v1.8c0 .5-.2.9-.5 1.2-.1.1-.4.4-.6.5s-.6.2-1.1.2h-.8c-.2 0-.5-.1-.6-.1-.1-.1-.4-.2-.5-.5-.1-.2-.2-.5-.4-.9-.2-.6-.4-1.3-.5-2.1-.1-.7-.1-1.7-.2-2.4s0-1.5 0-2.1v-6.2c-.1-.1-.1-.3-.1-.3z"/></g></svg>